<svg width="20" height="20" viewBox="0 0 20 20" fill="none" xmlns="http://www.w3.org/2000/svg">
<path fill-rule="evenodd" clip-rule="evenodd" d="M6.1457 3.98255C5.17485 4.572 4.68769 5.31546 4.68769 6.04169C4.68769 6.76792 5.17485 7.51137 6.1457 8.10082C7.10713 8.68454 8.46862 9.06252 10.0002 9.06252C11.5318 9.06252 12.8933 8.68454 13.8547 8.10082C14.8255 7.51137 15.3127 6.76792 15.3127 6.04169C15.3127 5.31546 14.8255 4.572 13.8547 3.98255C12.8933 3.39883 11.5318 3.02085 10.0002 3.02085C8.46862 3.02085 7.10713 3.39883 6.1457 3.98255ZM5.6051 3.09215C6.75493 2.39404 8.31011 1.97919 10.0002 1.97919C11.6903 1.97919 13.2455 2.39404 14.3953 3.09215C15.5357 3.78453 16.3544 4.81191 16.3544 6.04169C16.3544 7.27146 15.5357 8.29884 14.3953 8.99123C13.2455 9.68933 11.6903 10.1042 10.0002 10.1042C8.31011 10.1042 6.75493 9.68933 5.6051 8.99123C4.46471 8.29884 3.64603 7.27146 3.64603 6.04169C3.64603 4.81191 4.46471 3.78453 5.6051 3.09215Z" fill="#01BF55"/>
<path fill-rule="evenodd" clip-rule="evenodd" d="M4.68769 5.83335V13.913C4.68769 14.5677 4.99782 15.1567 5.5169 15.4546C8.51804 17.1769 11.4823 17.1769 14.4835 15.4546C15.0026 15.1567 15.3127 14.5677 15.3127 13.913V5.83335H16.3544V13.913C16.3544 14.8829 15.892 15.8473 15.002 16.3581C11.6797 18.2647 8.32066 18.2647 4.99842 16.3581C4.10843 15.8473 3.64603 14.8829 3.64603 13.913V5.83335H4.68769Z" fill="#01BF55"/>
<path fill-rule="evenodd" clip-rule="evenodd" d="M10.0002 4.68752C10.2943 4.68752 10.4071 4.87564 10.4071 4.9653C10.4071 5.19542 10.5936 5.38196 10.8237 5.38196C11.0539 5.38196 11.2404 5.19542 11.2404 4.9653C11.2404 4.2879 10.6158 3.85419 10.0002 3.85419C9.33818 3.85419 8.83336 4.3221 8.7629 4.91623C8.70995 5.36273 8.82447 5.73814 9.12332 5.98237C9.39282 6.20262 9.73615 6.25002 10.0002 6.25002C10.2303 6.25002 10.4169 6.06347 10.4169 5.83335C10.4169 5.60323 10.2303 5.41669 10.0002 5.41669C9.80943 5.41669 9.69982 5.37729 9.65066 5.33711C9.63086 5.32093 9.56103 5.26231 9.59043 5.01437C9.61024 4.84736 9.75257 4.68752 10.0002 4.68752Z" fill="#01BF55"/>
<path fill-rule="evenodd" clip-rule="evenodd" d="M10.3498 6.3296C10.3695 6.34577 10.4394 6.40439 10.41 6.65234C10.3902 6.81935 10.2478 6.97919 10.0002 6.97919C9.70609 6.97919 9.59333 6.79107 9.59333 6.70141C9.59333 6.47129 9.40678 6.28474 9.17666 6.28474C8.94654 6.28474 8.75999 6.47129 8.75999 6.70141C8.75999 7.37881 9.38466 7.81252 10.0002 7.81252C10.6622 7.81252 11.1671 7.34461 11.2375 6.75048C11.2905 6.30398 11.1759 5.92857 10.8771 5.68433C10.6076 5.46409 10.2643 5.41669 10.0002 5.41669C9.77009 5.41669 9.58354 5.60324 9.58354 5.83335C9.58354 6.06347 9.77009 6.25002 10.0002 6.25002C10.191 6.25002 10.3006 6.28942 10.3498 6.3296Z" fill="#01BF55"/>
<path fill-rule="evenodd" clip-rule="evenodd" d="M10.0002 3.33335C10.2303 3.33335 10.4169 3.5199 10.4169 3.75002V4.27085C10.4169 4.50097 10.2303 4.68752 10.0002 4.68752C9.77009 4.68752 9.58353 4.50097 9.58353 4.27085V3.75002C9.58353 3.5199 9.77008 3.33335 10.0002 3.33335Z" fill="#01BF55"/>
<path fill-rule="evenodd" clip-rule="evenodd" d="M10.0002 6.97919C10.2303 6.97919 10.4169 7.16573 10.4169 7.39585V7.91669C10.4169 8.14681 10.2303 8.33335 10.0002 8.33335C9.77008 8.33335 9.58353 8.14681 9.58353 7.91669V7.39585C9.58353 7.16573 9.77008 6.97919 10.0002 6.97919Z" fill="#01BF55"/>
<path fill-rule="evenodd" clip-rule="evenodd" d="M16.2694 10.1317C16.4269 10.3724 16.3593 10.6952 16.1186 10.8526C10.4409 14.5649 5.27492 11.8988 3.85436 10.8334C3.62424 10.6608 3.5776 10.3343 3.75019 10.1042C3.92278 9.87407 4.24924 9.82743 4.47936 10C5.72547 10.9346 10.3928 13.3518 15.5485 9.98077C15.7893 9.82335 16.112 9.89091 16.2694 10.1317Z" fill="#01BF55"/>
<path fill-rule="evenodd" clip-rule="evenodd" d="M16.2694 12.6317C16.4269 12.8724 16.3593 13.1952 16.1186 13.3526C10.4409 17.0649 5.27492 14.3988 3.85436 13.3334C3.62424 13.1608 3.5776 12.8343 3.75019 12.6042C3.92278 12.3741 4.24924 12.3274 4.47936 12.5C5.72547 13.4346 10.3928 15.8518 15.5485 12.4808C15.7893 12.3233 16.112 12.3909 16.2694 12.6317Z" fill="#01BF55"/>
</svg>
